<svg width="600" height="598" viewBox="0 0 600 598" fill="none" xmlns="http://www.w3.org/2000/svg">
<path d="M280.485 8.412L276.845 10.466V10.128L280.485 12.182L280.017 13.014L276.429 10.934L276.663 10.804L276.689 14.886H275.779V10.804L276.039 10.934L272.451 13.014L271.983 12.182L275.649 10.128V10.466L271.983 8.412L272.451 7.58L276.039 9.66L275.779 9.79V5.708H276.689L276.663 9.79L276.429 9.66L280.017 7.58L280.485 8.412Z" fill="white"/>
<path d="M336.631 26.8086C335.308 26.5275 334.1 26.0404 333.007 25.3473C331.935 24.6409 331.152 23.8632 330.659 23.0141L331.449 22.172C331.926 22.9291 332.644 23.6398 333.601 24.304C334.579 24.9549 335.662 25.4065 336.848 25.6588C338.035 25.911 339.034 25.9639 339.845 25.8172C340.676 25.6573 341.326 25.3523 341.794 24.9024C342.278 24.4561 342.589 23.9108 342.726 23.2666C342.888 22.5036 342.815 21.85 342.505 21.3057C342.195 20.7615 341.739 20.2834 341.135 19.8716C340.532 19.4598 339.86 19.0777 339.12 18.7255C338.379 18.3732 337.632 18.0106 336.879 17.6378C336.129 17.248 335.459 16.8133 334.87 16.3336C334.281 15.854 333.844 15.2827 333.56 14.6198C333.296 13.9435 333.263 13.1391 333.461 12.2066C333.641 11.3588 334.028 10.6258 334.62 10.0074C335.212 9.389 336.021 8.9585 337.047 8.71589C338.074 8.47328 339.316 8.50694 340.774 8.81687C341.757 9.02589 342.693 9.37542 343.581 9.86546C344.486 10.3591 345.226 10.9238 345.799 11.5597L345.095 12.4997C344.457 11.8325 343.731 11.2883 342.916 10.8671C342.123 10.4326 341.327 10.1307 340.531 9.9613C339.395 9.71984 338.419 9.6809 337.605 9.84447C336.79 10.008 336.148 10.3233 335.676 10.7901C335.208 11.24 334.904 11.7956 334.764 12.4568C334.601 13.2198 334.667 13.8716 334.959 14.4123C335.269 14.9565 335.726 15.4346 336.329 15.8464C336.933 16.2582 337.613 16.6421 338.37 16.9979C339.128 17.3538 339.873 17.7248 340.606 18.111C341.342 18.4803 342.005 18.9047 342.594 19.3843C343.184 19.864 343.62 20.4353 343.905 21.0982C344.189 21.7612 344.234 22.5504 344.039 23.466C343.863 24.2967 343.468 25.028 342.855 25.6597C342.246 26.2745 341.42 26.7014 340.377 26.9404C339.354 27.1661 338.106 27.1221 336.631 26.8086Z" fill="white"/>
<path d="M388.027 38.3025L395.43 21.676L396.451 22.1307L398.238 38.8926L397.692 38.6494L411.32 28.7508L412.318 29.1949L404.939 45.832L403.751 45.3033L410.316 30.4951L410.648 30.6431L397.752 39.9852L397.158 39.7208L395.447 23.875L395.803 24.0337L389.215 38.8313L388.027 38.3025Z" fill="white"/>
<path d="M437.768 60.5078L455.239 50.7046L456.311 51.484L452.387 71.129L451.23 70.2885L455.044 51.5917L455.507 51.9279L438.925 61.3483L437.768 60.5078ZM443.26 58.1673L444.275 57.5226L453.089 63.926L452.789 65.0902L443.26 58.1673Z" fill="white"/>
<path d="M486.301 96.6181L499.826 84.4399L504.193 89.2897C505.214 90.4232 505.909 91.5581 506.279 92.6944C506.649 93.8307 506.69 94.9251 506.401 95.9778C506.126 97.0189 505.505 97.9744 504.539 98.8442C503.599 99.6909 502.59 100.203 501.513 100.379C500.449 100.545 499.365 100.389 498.26 99.9143C497.169 99.4276 496.113 98.6174 495.092 97.4839L491.213 93.1751L492.077 93.202L487.188 97.6035L486.301 96.6181ZM494.756 106.008L496.497 98.073L497.507 99.1937L495.765 107.129L494.756 106.008ZM492.019 93.2542L492.082 92.3922L495.962 96.701C497.272 98.1566 498.586 98.9679 499.903 99.1351C501.231 99.3152 502.475 98.8833 503.634 97.8395C504.807 96.784 505.366 95.5922 505.313 94.2639C505.284 92.9368 504.615 91.5456 503.304 90.09L499.425 85.7812L500.308 85.7907L492.019 93.2542Z" fill="white"/>
<path d="M525.972 142.787L540.698 134.285L537.422 128.61L538.458 128.012L545.673 140.509L544.637 141.107L541.361 135.433L526.635 143.935L525.972 142.787Z" fill="white"/>
<path d="M570.133 252.379C569.992 251.034 570.085 249.761 570.412 248.559C570.758 247.372 571.3 246.313 572.038 245.381C572.777 244.45 573.674 243.693 574.728 243.112C575.8 242.529 576.999 242.167 578.326 242.028C579.654 241.888 580.893 241.993 582.046 242.343C583.215 242.69 584.258 243.243 585.174 244.001C586.092 244.776 586.835 245.709 587.403 246.799C587.988 247.888 588.351 249.105 588.492 250.449C588.626 251.725 588.545 252.936 588.247 254.083C587.951 255.247 587.422 256.27 586.661 257.151L585.721 256.414C586.398 255.558 586.85 254.639 587.078 253.657C587.325 252.69 587.393 251.68 587.282 250.629C587.161 249.474 586.85 248.417 586.348 247.459C585.848 246.518 585.197 245.715 584.395 245.05C583.595 244.402 582.691 243.922 581.682 243.61C580.675 243.315 579.603 243.227 578.465 243.347C577.327 243.466 576.296 243.775 575.373 244.273C574.451 244.788 573.666 245.446 573.018 246.246C572.372 247.063 571.902 247.984 571.609 249.008C571.318 250.05 571.233 251.148 571.354 252.303C571.465 253.354 571.733 254.328 572.158 255.225C572.602 256.137 573.253 256.94 574.111 257.634L573.344 258.551C572.416 257.847 571.678 256.957 571.129 255.882C570.599 254.822 570.268 253.655 570.133 252.379Z" fill="white"/>
<path d="M573.844 309.582C573.985 308.237 574.341 307.011 574.91 305.903C575.495 304.815 576.247 303.883 577.165 303.108C578.098 302.352 579.141 301.799 580.293 301.45C581.463 301.102 582.702 300.997 584.012 301.135C585.323 301.272 586.505 301.632 587.559 302.213C588.631 302.797 589.536 303.554 590.275 304.486C591.029 305.436 591.57 306.504 591.899 307.689C592.243 308.893 592.344 310.167 592.203 311.512C592.061 312.856 591.698 314.073 591.113 315.162C590.544 316.27 589.801 317.202 588.884 317.96C587.968 318.718 586.925 319.271 585.756 319.618C584.602 319.985 583.361 320.098 582.034 319.959C580.707 319.819 579.508 319.45 578.438 318.849C577.384 318.268 576.487 317.511 575.749 316.579C575.01 315.648 574.469 314.58 574.125 313.376C573.796 312.191 573.702 310.927 573.844 309.582ZM575.059 309.71C574.938 310.865 575.024 311.954 575.317 312.979C575.61 314.003 576.081 314.915 576.729 315.715C577.376 316.515 578.162 317.164 579.086 317.662C580.008 318.177 581.038 318.495 582.175 318.614C583.33 318.736 584.404 318.639 585.395 318.325C586.402 318.03 587.306 317.559 588.106 316.911C588.906 316.263 589.556 315.469 590.056 314.528C590.555 313.587 590.866 312.539 590.987 311.384C591.109 310.229 591.023 309.139 590.73 308.115C590.436 307.091 589.967 306.17 589.321 305.353C588.673 304.553 587.888 303.895 586.966 303.38C586.06 302.884 585.029 302.575 583.874 302.453C582.736 302.334 581.664 302.422 580.657 302.717C579.648 303.029 578.743 303.509 577.943 304.157C577.141 304.822 576.491 305.625 575.991 306.566C575.491 307.507 575.18 308.555 575.059 309.71Z" fill="white"/>
<path d="M568.093 358.977L585.402 364.601L585.056 365.664L568.573 369.193L568.758 368.625L580.027 381.144L579.689 382.182L562.372 376.583L562.774 375.346L578.187 380.327L578.074 380.673L567.435 368.824L567.636 368.205L583.217 364.848L583.096 365.219L567.691 360.213L568.093 358.977Z" fill="white"/>
<path d="M549.687 413.4L565.449 422.5L562.186 428.152C561.423 429.473 560.559 430.485 559.592 431.188C558.626 431.891 557.598 432.268 556.507 432.319C555.432 432.379 554.332 432.084 553.206 431.434C552.11 430.801 551.312 430 550.811 429.03C550.31 428.06 550.122 426.981 550.248 425.793C550.374 424.605 550.818 423.35 551.58 422.029L554.479 417.008L554.721 417.838L549.024 414.549L549.687 413.4ZM554.653 417.799L555.515 417.606L552.616 422.627C551.637 424.323 551.264 425.819 551.496 427.114C551.736 428.433 552.531 429.483 553.882 430.263C555.248 431.051 556.554 431.215 557.801 430.754C559.054 430.317 560.171 429.25 561.15 427.554L564.049 422.533L564.313 423.376L554.653 417.799Z" fill="white"/>
<path d="M522.404 460.547L530.327 478.947L529.44 479.932L510.313 473.976L511.27 472.913L529.466 478.661L529.083 479.086L521.447 461.61L522.404 460.547ZM524.158 466.254L524.693 467.331L517.403 475.427L516.277 475.007L524.158 466.254Z" fill="white"/>
<path d="M481.418 505.04L492.116 519.764L491.212 520.421L470.981 514.648L471.464 514.297L481.199 527.695L480.127 528.475L469.429 513.751L470.312 513.109L490.564 518.867L490.081 519.218L480.346 505.819L481.418 505.04Z" fill="white"/>
<path d="M434.539 538.251L441.942 554.877L440.73 555.417L433.328 538.79L434.539 538.251Z" fill="white"/>
<path d="M382.678 570.846L373.039 572.895L372.796 571.75L382.435 569.702L382.678 570.846ZM380.731 562.435L369.744 564.77L369.495 563.6L381.779 560.989L385.563 578.792L373.661 581.322L373.412 580.152L384.017 577.898L380.731 562.435Z" fill="white"/>
<path d="M320.66 572.132C322.012 572.132 323.295 572.357 324.508 572.808C325.704 573.276 326.631 573.874 327.29 574.602L326.692 575.59C326.068 574.948 325.219 574.402 324.144 573.952C323.052 573.518 321.899 573.302 320.686 573.302C319.473 573.302 318.485 573.458 317.722 573.77C316.942 574.099 316.37 574.532 316.006 575.07C315.625 575.607 315.434 576.205 315.434 576.864C315.434 577.644 315.642 578.268 316.058 578.736C316.474 579.204 317.02 579.576 317.696 579.854C318.372 580.131 319.109 580.365 319.906 580.556C320.703 580.746 321.509 580.946 322.324 581.154C323.139 581.379 323.884 581.665 324.56 582.012C325.236 582.358 325.782 582.826 326.198 583.416C326.597 584.022 326.796 584.802 326.796 585.756C326.796 586.622 326.571 587.42 326.12 588.148C325.669 588.876 324.967 589.465 324.014 589.916C323.061 590.366 321.839 590.592 320.348 590.592C319.343 590.592 318.355 590.444 317.384 590.15C316.396 589.855 315.555 589.456 314.862 588.954L315.356 587.888C316.119 588.408 316.942 588.789 317.826 589.032C318.693 589.292 319.533 589.422 320.348 589.422C321.509 589.422 322.471 589.257 323.234 588.928C323.997 588.598 324.56 588.156 324.924 587.602C325.288 587.064 325.47 586.458 325.47 585.782C325.47 585.002 325.271 584.378 324.872 583.91C324.456 583.442 323.91 583.069 323.234 582.792C322.558 582.514 321.813 582.28 320.998 582.09C320.183 581.899 319.377 581.691 318.58 581.466C317.783 581.258 317.046 580.98 316.37 580.634C315.694 580.287 315.148 579.819 314.732 579.23C314.316 578.64 314.108 577.878 314.108 576.942C314.108 576.092 314.342 575.295 314.81 574.55C315.278 573.822 315.997 573.232 316.968 572.782C317.921 572.348 319.152 572.132 320.66 572.132Z" fill="white"/>
<path d="M258.724 586.563L262.711 585.31L262.641 585.641L259.508 582.875L260.139 582.158L263.216 584.939L262.96 585.017L263.783 581.019L264.673 581.208L263.824 585.201L263.597 585.02L267.539 583.731L267.824 584.643L263.811 585.889L263.881 585.559L267.04 588.33L266.409 589.047L263.332 586.266L263.614 586.193L262.765 590.186L261.875 589.997L262.749 586.009L262.951 586.185L259.009 587.474L258.724 586.563Z" fill="white"/>
<path d="M138.132 541.758L137.059 540.979L147.756 526.255L148.829 527.034L138.132 541.758ZM158.673 534.187L159.746 534.966L149.048 549.69L147.976 548.911L158.673 534.187ZM143.614 533.947L153.711 541.283L153.023 542.229L142.926 534.894L143.614 533.947Z" fill="white"/>
<path d="M115.709 502.904L96.5822 508.861L95.6949 507.875L103.618 489.476L104.575 490.538L96.9569 508.034L96.5742 507.609L114.753 501.842L115.709 502.904ZM109.85 504.052L108.724 504.471L101.434 496.375L101.969 495.299L109.85 504.052Z" fill="white"/>
<path d="M75.7444 457.492L59.9828 466.592L56.7198 460.941C55.9571 459.62 55.5129 458.365 55.3872 457.177C55.2616 455.988 55.4492 454.909 55.9501 453.94C56.436 452.978 57.2419 452.173 58.3677 451.523C59.4635 450.89 60.5566 450.599 61.6468 450.651C62.7371 450.702 63.7654 451.079 64.7317 451.782C65.698 452.485 66.5625 453.497 67.3251 454.818L70.2241 459.839L69.3847 459.633L75.0814 456.344L75.7444 457.492ZM69.4523 459.594L69.1884 460.437L66.2894 455.416C65.31 453.719 64.2013 452.648 62.963 452.202C61.7012 451.75 60.3947 451.914 59.0437 452.694C57.6777 453.482 56.8826 454.532 56.6584 455.842C56.4105 457.146 56.7762 458.646 57.7555 460.343L60.6545 465.364L59.7926 465.171L69.4523 459.594Z" fill="white"/>
<path d="M47.6155 407.398L30.3063 413.022L28.2897 406.816C27.8183 405.365 27.6447 404.045 27.7688 402.857C27.893 401.668 28.3008 400.652 28.9924 399.808C29.6675 398.969 30.6233 398.348 31.8596 397.946C33.063 397.555 34.1927 397.498 35.2485 397.775C36.3043 398.051 37.2317 398.634 38.0307 399.523C38.8298 400.411 39.465 401.581 39.9363 403.031L41.728 408.546L40.9497 408.17L47.2058 406.137L47.6155 407.398ZM41.0239 408.146L40.5905 408.915L38.7988 403.401C38.1936 401.538 37.3317 400.26 36.2133 399.566C35.073 398.862 33.7611 398.75 32.2774 399.232C30.7773 399.72 29.7814 400.581 29.2896 401.816C28.776 403.04 28.8219 404.583 29.4271 406.446L31.2188 411.96L30.4158 411.592L41.0239 408.146Z" fill="white"/>
<path d="M30.068 348.284L23.5002 348.974L24.3209 348.574L12.7341 357.478L12.582 356.03L23.1044 347.944L23.1805 348.668L11.2068 342.946L11.0627 341.576L24.2475 347.876L23.3616 347.655L29.9294 346.965L30.068 348.284Z" fill="white"/>
<path d="M31.8825 238.285L14.5732 232.661L14.9187 231.598L31.402 228.068L31.2172 228.637L19.9483 216.118L20.2857 215.08L37.603 220.679L37.2013 221.915L21.788 216.935L21.9005 216.588L32.5395 228.438L32.3386 229.056L16.7585 232.414L16.879 232.043L32.2842 237.049L31.8825 238.285Z" fill="white"/>
<path d="M50.2878 183.861L34.5261 174.761L35.1891 173.613L50.9508 182.713L50.2878 183.861Z" fill="white"/>
<path d="M79.6063 134.454L66.081 122.276L66.8291 121.445L87.8184 122.886L87.4182 123.33L75.1103 112.248L75.9975 111.262L89.5228 123.441L88.7921 124.252L67.7854 122.831L68.1856 122.386L80.4935 133.469L79.6063 134.454Z" fill="white"/>
<path d="M118.556 92.2219L107.859 77.4978L113.685 73.2646C115.242 72.1337 116.838 71.4559 118.475 71.2311C120.111 71.0063 121.654 71.2135 123.104 71.8526C124.568 72.4816 125.82 73.5112 126.859 74.9416C127.898 76.3719 128.491 77.8804 128.636 79.4671C128.796 81.0436 128.516 82.5752 127.797 84.0621C127.077 85.5489 125.939 86.8578 124.383 87.9887L118.556 92.2219ZM118.926 90.4749L123.596 87.0822C124.984 86.0736 125.991 84.924 126.618 83.6333C127.244 82.3427 127.491 81.0168 127.359 79.6557C127.217 78.2806 126.693 76.969 125.786 75.721C124.879 74.4729 123.799 73.5759 122.545 73.0299C121.281 72.4698 119.939 72.2882 118.518 72.4851C117.097 72.6819 115.692 73.2847 114.304 74.2933L109.634 77.686L118.926 90.4749Z" fill="white"/>
<path d="M169.859 57.1837C168.624 57.7336 167.361 58.0494 166.069 58.1312C164.786 58.1902 163.696 58.021 162.798 57.6239L162.942 56.4781C163.773 56.8102 164.771 56.9635 165.936 56.9381C167.11 56.8898 168.251 56.6189 169.36 56.1254C170.468 55.6319 171.307 55.0875 171.877 54.4923C172.456 53.8742 172.802 53.2457 172.916 52.6067C173.046 51.9608 172.977 51.3369 172.709 50.7352C172.391 50.0226 171.948 49.5372 171.377 49.2788C170.807 49.0205 170.156 48.9021 169.426 48.9237C168.696 48.9453 167.928 49.0312 167.122 49.1813C166.316 49.3314 165.498 49.4771 164.669 49.6185C163.834 49.744 163.036 49.7859 162.278 49.7441C161.519 49.7024 160.83 49.4969 160.21 49.1277C159.599 48.7357 159.1 48.1042 158.712 47.2333C158.36 46.4415 158.241 45.6215 158.357 44.7731C158.473 43.9248 158.874 43.1008 159.562 42.3014C160.249 41.5019 161.274 40.799 162.636 40.1927C163.554 39.7838 164.517 39.5166 165.523 39.3909C166.546 39.2583 167.476 39.2806 168.314 39.4578L168.296 40.6325C167.388 40.4677 166.481 40.4542 165.574 40.5921C164.677 40.7071 163.856 40.9302 163.112 41.2616C162.051 41.7339 161.239 42.2756 160.676 42.8867C160.113 43.4978 159.779 44.1307 159.672 44.7855C159.558 45.4244 159.638 46.0526 159.913 46.6702C160.23 47.3828 160.666 47.8717 161.221 48.1371C161.791 48.3955 162.442 48.5138 163.172 48.4922C163.902 48.4706 164.678 48.3812 165.5 48.2241C166.322 48.0669 167.143 47.9291 167.963 47.8106C168.776 47.6763 169.562 47.6301 170.32 47.6718C171.079 47.7136 171.768 47.919 172.388 48.2882C173.007 48.6574 173.508 49.2695 173.888 50.1246C174.234 50.9005 174.344 51.7241 174.22 52.5953C174.089 53.4507 173.671 54.2817 172.968 55.0882C172.273 55.8718 171.237 56.5703 169.859 57.1837Z" fill="white"/>
<path d="M220.571 18.8088L217.438 21.5747L217.367 21.2441L221.355 22.4964L221.07 23.4075L217.128 22.119L217.33 21.9432L218.204 25.9306L217.314 26.1198L216.465 22.127L216.747 22.2001L213.669 24.9806L213.039 24.2641L216.197 21.4928L216.268 21.8234L212.255 20.5765L212.54 19.6653L216.482 20.9539L216.254 21.1351L215.406 17.1423L216.296 16.9531L217.119 20.9513L216.863 20.8728L219.94 18.0923L220.571 18.8088Z" fill="white"/>
</svg>
